<svg width="120" height="33" viewBox="0 0 120 33" fill="none" xmlns="http://www.w3.org/2000/svg">
<g clip-path="url(#clip0_9_948)">
<path d="M31.3557 16.4888L29.8585 16.3013C29.4033 15.1877 28.7494 14.1576 27.9366 13.2664L29.0374 8.60295C29.0827 8.41126 29.0378 8.20946 28.9156 8.05503C28.7934 7.9006 28.6073 7.8105 28.4104 7.81037L28.2696 7.8103C28.2688 7.8103 28.2682 7.8103 28.2673 7.8103C26.44 7.8103 24.7932 8.96001 24.1454 10.6464C23.6873 10.4643 23.2164 10.3143 22.7361 10.2007C22.3896 10.1188 22.0424 10.3331 21.9605 10.6796C21.8786 11.026 22.0929 11.3732 22.4394 11.4551C24.08 11.8432 25.5436 12.6728 26.6971 13.8242C26.7393 13.8859 26.7918 13.9406 26.8536 13.9848C27.6945 14.8674 28.3592 15.9264 28.7904 17.1131C28.8729 17.3405 29.076 17.5025 29.3161 17.5325L31.1956 17.7678C31.4895 17.8046 31.711 18.0557 31.711 18.3518V21.6013C31.711 21.8974 31.4894 22.1485 31.1956 22.1853L29.4539 22.4033C29.2034 22.4346 28.9942 22.6094 28.9188 22.8503C28.4021 24.5013 27.4204 25.9612 26.0796 27.0721C25.9318 27.1946 25.8462 27.3766 25.8462 27.5684V31.131C25.8462 31.4508 25.5861 31.7109 25.2664 31.7109H21.5277C21.2079 31.7109 20.9478 31.4508 20.9478 31.131V29.7732C20.9478 29.4173 20.6592 29.1287 20.3033 29.1287H14.8883C14.5324 29.1287 14.2438 29.4173 14.2438 29.7732V31.131C14.2438 31.4508 13.9837 31.7109 13.6639 31.7109H9.92512C9.60543 31.7109 9.3453 31.4508 9.3453 31.131V28.6155C9.3453 28.3791 9.21594 28.1618 9.00827 28.0491C6.11549 26.4785 4.31835 23.4601 4.31835 20.1718C4.31835 15.2329 8.33642 11.2148 13.2753 11.2148H14.083C14.4389 11.2148 14.7275 10.9263 14.7275 10.5703C14.7275 10.2143 14.4389 9.92578 14.083 9.92578H13.2753C8.49084 9.92578 4.46221 13.2224 3.34041 17.6634H2.86816C1.9974 17.6634 1.28906 16.955 1.28906 16.0843C1.28906 15.2136 1.9974 14.5052 2.86816 14.5052C3.22407 14.5052 3.51269 14.2166 3.51269 13.8606C3.51269 13.5047 3.22407 13.2161 2.86816 13.2161C1.28668 13.2161 0 14.5027 0 16.0843C0 17.6658 1.28668 18.9524 2.86816 18.9524H3.10219C3.05449 19.3524 3.02929 19.7592 3.02929 20.1718C3.02929 23.8037 4.94574 27.1477 8.05617 28.9907V31.1311C8.05617 32.1616 8.89458 33 9.92505 33H13.6638C14.6943 33 15.5327 32.1616 15.5327 31.1311V30.4178H19.6586V31.1311C19.6586 32.1616 20.497 33 21.5276 33H25.2663C26.2968 33 27.1352 32.1616 27.1352 31.1311V27.8656C28.4438 26.7147 29.4314 25.2629 30.0158 23.6321L31.3556 23.4643C32.293 23.347 32.9999 22.5461 32.9999 21.6013V18.3518C32.9999 17.4071 32.2931 16.6061 31.3557 16.4888ZM26.8542 12.2407C26.3734 11.8474 25.8584 11.499 25.3168 11.1998C25.6729 10.1766 26.5414 9.41531 27.5772 9.17761L26.8542 12.2407Z" fill="white"/>
<path d="M25.6568 16.3666C25.537 16.2467 25.3707 16.1777 25.2012 16.1777C25.0317 16.1777 24.8654 16.2467 24.7455 16.3666C24.6256 16.4865 24.5566 16.6528 24.5566 16.8223C24.5566 16.9918 24.6255 17.1581 24.7455 17.278C24.8654 17.3978 25.0317 17.4668 25.2012 17.4668C25.3707 17.4668 25.537 17.3978 25.6568 17.278C25.7767 17.1581 25.8457 16.9918 25.8457 16.8223C25.8457 16.6528 25.7767 16.4865 25.6568 16.3666Z" fill="white"/>
<path d="M18.9004 3.75977C18.5445 3.75977 18.2559 4.04832 18.2559 4.4043V6.96082C18.2559 7.3168 18.5445 7.60535 18.9004 7.60535C19.2563 7.60535 19.5449 7.3168 19.5449 6.96082V4.4043C19.5449 4.04839 19.2564 3.75977 18.9004 3.75977Z" fill="white"/>
<path d="M19.356 1.60999C19.2362 1.49011 19.0699 1.42114 18.9004 1.42114C18.7308 1.42114 18.5646 1.49011 18.4447 1.60999C18.3248 1.72987 18.2559 1.89616 18.2559 2.06567C18.2559 2.23583 18.3248 2.40147 18.4447 2.52136C18.5646 2.64124 18.7308 2.7102 18.9004 2.7102C19.0699 2.7102 19.2362 2.64124 19.356 2.52136C19.4759 2.40147 19.5449 2.23518 19.5449 2.06567C19.5449 1.89616 19.4759 1.73052 19.356 1.60999Z" fill="white"/>
<path d="M13.6641 0C13.3082 0 13.0195 0.288556 13.0195 0.64453V1.74023C13.0195 2.0962 13.3082 2.38476 13.6641 2.38476C14.02 2.38476 14.3086 2.0962 14.3086 1.74023V0.64453C14.3086 0.288556 14.02 0 13.6641 0Z" fill="white"/>
<path d="M7.34375 20.1718C7.34375 19.8158 7.05513 19.5272 6.69922 19.5272C6.34331 19.5272 6.05469 19.8158 6.05469 20.1718L6.05475 20.206C6.05694 20.5605 6.34511 20.8465 6.69922 20.8465C6.70051 20.8465 6.70186 20.8465 6.70328 20.8465C7.05919 20.8443 7.34601 20.5539 7.34381 20.1979L7.34375 20.1718Z" fill="white"/>
<path d="M10.1968 25.2431C9.07646 24.5613 8.2019 23.5137 7.73436 22.2934C7.60693 21.9609 7.2342 21.7947 6.90188 21.9222C6.5695 22.0495 6.40327 22.4222 6.53063 22.7547C7.09975 24.2401 8.16381 25.5149 9.52679 26.3443C9.63146 26.408 9.74703 26.4383 9.86117 26.4383C10.0787 26.4383 10.2911 26.3282 10.4124 26.1288C10.5975 25.8247 10.5009 25.4282 10.1968 25.2431Z" fill="white"/>
<path d="M13.6641 3.09705C12.1714 3.09705 10.957 4.3114 10.957 5.80407C10.957 7.29674 12.1714 8.5111 13.6641 8.5111C15.1567 8.5111 16.3711 7.29674 16.3711 5.80407C16.3711 4.3114 15.1567 3.09705 13.6641 3.09705ZM13.6641 7.22204C12.8822 7.22204 12.2461 6.58595 12.2461 5.80407C12.2461 5.02219 12.8822 4.38611 13.6641 4.38611C14.4459 4.38611 15.082 5.02219 15.082 5.80407C15.082 6.58595 14.4459 7.22204 13.6641 7.22204Z" fill="white"/>
<path d="M21.7851 13.6641H21.2051C21.4599 13.2514 21.6074 12.7657 21.6074 12.2461C21.6074 10.7534 20.393 9.53906 18.9004 9.53906C17.4077 9.53906 16.1933 10.7534 16.1933 12.2461C16.1933 12.7657 16.3407 13.2514 16.5956 13.6641H13.4062C13.0503 13.6641 12.7617 13.9526 12.7617 14.3086C12.7617 14.6646 13.0503 14.9531 13.4062 14.9531H21.7851C22.141 14.9531 22.4297 14.6646 22.4297 14.3086C22.4297 13.9526 22.1411 13.6641 21.7851 13.6641ZM18.9004 13.6641C18.1185 13.6641 17.4824 13.028 17.4824 12.2461C17.4824 11.4642 18.1185 10.8281 18.9004 10.8281C19.6822 10.8281 20.3183 11.4642 20.3183 12.2461C20.3183 13.028 19.6822 13.6641 18.9004 13.6641Z" fill="white"/>
</g>
<path d="M46.591 27H50.065V15.201H53.548V12.15H43.108V15.201H46.591V27ZM53.9866 27H57.2716V22.185C57.2716 21.867 57.3646 21.567 57.5506 21.285C57.7366 21.003 57.9796 20.775 58.2796 20.601C58.5856 20.427 58.9066 20.34 59.2426 20.34C59.4886 20.34 59.7556 20.388 60.0436 20.484C60.3316 20.574 60.5836 20.694 60.7996 20.844L62.1676 18.081C61.9216 17.907 61.6126 17.766 61.2406 17.658C60.8686 17.55 60.5116 17.496 60.1696 17.496C59.6116 17.496 59.0806 17.637 58.5766 17.919C58.0726 18.195 57.6376 18.585 57.2716 19.089V17.784H53.9866V27ZM67.0577 27.288C68.1797 27.288 69.1787 26.874 70.0547 26.046V27H73.3397V17.784H70.0547V18.63C69.6887 18.276 69.2447 18 68.7227 17.802C68.2007 17.598 67.6457 17.496 67.0577 17.496C66.1697 17.496 65.3807 17.712 64.6907 18.144C64.0067 18.57 63.4697 19.152 63.0797 19.89C62.6897 20.628 62.4947 21.456 62.4947 22.374C62.4947 23.322 62.6987 24.168 63.1067 24.912C63.5147 25.65 64.0637 26.232 64.7537 26.658C65.4437 27.078 66.2117 27.288 67.0577 27.288ZM68.0477 24.507C67.4477 24.507 66.9497 24.309 66.5537 23.913C66.1577 23.511 65.9597 23.004 65.9597 22.392C65.9597 21.786 66.1577 21.282 66.5537 20.88C66.9497 20.478 67.4477 20.277 68.0477 20.277C68.6537 20.277 69.1487 20.478 69.5327 20.88C69.9227 21.276 70.1177 21.78 70.1177 22.392C70.1177 23.004 69.9227 23.511 69.5327 23.913C69.1487 24.309 68.6537 24.507 68.0477 24.507ZM80.6926 27.288C81.2926 27.288 81.8596 27.204 82.3936 27.036C82.9276 26.868 83.3596 26.664 83.6896 26.424L82.6006 24.21C82.4446 24.324 82.2436 24.42 81.9976 24.498C81.7576 24.57 81.4966 24.606 81.2146 24.606C80.5246 24.606 79.9726 24.39 79.5586 23.958C79.1506 23.52 78.9466 22.998 78.9466 22.392C78.9466 22.044 79.0276 21.702 79.1896 21.366C79.3576 21.024 79.6096 20.742 79.9456 20.52C80.2816 20.292 80.6986 20.178 81.1966 20.178C81.7666 20.178 82.2346 20.31 82.6006 20.574L83.6896 18.36C83.3716 18.114 82.9366 17.91 82.3846 17.748C81.8386 17.58 81.2686 17.496 80.6746 17.496C79.9306 17.496 79.2436 17.631 78.6136 17.901C77.9836 18.165 77.4346 18.528 76.9666 18.99C76.4986 19.452 76.1326 19.977 75.8686 20.565C75.6106 21.153 75.4816 21.765 75.4816 22.401C75.4816 23.073 75.6196 23.706 75.8956 24.3C76.1716 24.888 76.5496 25.407 77.0296 25.857C77.5096 26.307 78.0646 26.658 78.6946 26.91C79.3246 27.162 79.9906 27.288 80.6926 27.288ZM85.68 27H88.965V23.616L92.511 27H96.723L91.908 22.374L96.525 17.784H92.277L88.965 21.006V11.52H85.68V27ZM98.3451 27H106.877V23.958H101.81V21.078H106.661V18.036H101.81V15.192H106.877V12.15H98.3451V27ZM108.102 27H112.044L114.033 24.453L116.022 27H119.964L116.013 22.158L119.397 17.784H115.581L114.033 19.872L112.485 17.784H108.66L112.044 22.158L108.102 27Z" fill="#FF7661"/>
<defs>
<clipPath id="clip0_9_948">
<rect width="33" height="33" fill="white"/>
</clipPath>
</defs>
</svg>
